<?xml version="1.0" encoding="utf-8"?>
<svg version="1.1" id="Layer_1" xmlns="http://www.w3.org/2000/svg" xmlns:xlink="http://www.w3.org/1999/xlink" width="100" height="100">
<defs>
<line id="line" x1="0" y1="100" x2="100" y2="0" stroke-width=".7" stroke="grey"/>
</defs>
<rect x="0" y="0" width="100" height="100" fill="white"/>
<use xlink:href="#line" transform="rotate(0)"/><use xlink:href="#line" transform="translate(-100, 0)"/><use xlink:href="#line" transform="translate(-95, 0)"/><use xlink:href="#line" transform="translate(-90, 0)"/><use xlink:href="#line" transform="translate(-85, 0)"/><use xlink:href="#line" transform="translate(-80, 0)"/><use xlink:href="#line" transform="translate(-75, 0)"/><use xlink:href="#line" transform="translate(-70, 0)"/><use xlink:href="#line" transform="translate(-65, 0)"/><use xlink:href="#line" transform="translate(-60, 0)"/><use xlink:href="#line" transform="translate(-55, 0)"/><use xlink:href="#line" transform="translate(-50, 0)"/><use xlink:href="#line" transform="translate(-45, 0)"/><use xlink:href="#line" transform="translate(-40, 0)"/><use xlink:href="#line" transform="translate(-35, 0)"/><use xlink:href="#line" transform="translate(-30, 0)"/><use xlink:href="#line" transform="translate(-25, 0)"/><use xlink:href="#line" transform="translate(-20, 0)"/><use xlink:href="#line" transform="translate(-15, 0)"/><use xlink:href="#line" transform="translate(-10, 0)"/><use xlink:href="#line" transform="translate(-5, 0)"/><use xlink:href="#line" transform="translate(0, 0)"/><use xlink:href="#line" transform="translate(5, 0)"/><use xlink:href="#line" transform="translate(10, 0)"/><use xlink:href="#line" transform="translate(15, 0)"/><use xlink:href="#line" transform="translate(20, 0)"/><use xlink:href="#line" transform="translate(25, 0)"/><use xlink:href="#line" transform="translate(30, 0)"/><use xlink:href="#line" transform="translate(35, 0)"/><use xlink:href="#line" transform="translate(40, 0)"/><use xlink:href="#line" transform="translate(45, 0)"/><use xlink:href="#line" transform="translate(50, 0)"/><use xlink:href="#line" transform="translate(55, 0)"/><use xlink:href="#line" transform="translate(60, 0)"/><use xlink:href="#line" transform="translate(65, 0)"/><use xlink:href="#line" transform="translate(70, 0)"/><use xlink:href="#line" transform="translate(75, 0)"/><use xlink:href="#line" transform="translate(80, 0)"/><use xlink:href="#line" transform="translate(85, 0)"/><use xlink:href="#line" transform="translate(90, 0)"/><use xlink:href="#line" transform="translate(95, 0)"/></svg>